G04 start of page 9 for group -4079 idx -4079 *
G04 Title: (unknown), topsilk *
G04 Creator: pcb 20110918 *
G04 CreationDate: Thu 27 Mar 2014 04:48:04 PM GMT UTC *
G04 For: railfan *
G04 Format: Gerber/RS-274X *
G04 PCB-Dimensions: 50000 50000 *
G04 PCB-Coordinate-Origin: lower left *
%MOIN*%
%FSLAX25Y25*%
%LNTOPSILK*%
%ADD46C,0.0080*%
%ADD45C,0.0100*%
%ADD44C,0.0001*%
G54D44*G36*
X16000Y19500D02*X17500D01*
Y18000D01*
X16000D01*
Y19500D01*
G37*
G54D45*X49500Y49500D02*X500D01*
X49500Y500D02*X500D01*
Y49500D02*Y500D01*
X49500Y49500D02*Y500D01*
G54D46*X46000Y36500D02*Y34500D01*
X45000Y35500D02*X47000D01*
X44250Y25500D02*X46800D01*
X47650Y24905D01*
Y23970D01*
X46800Y23375D01*
X44250D02*X46800D01*
X45950Y25500D02*Y23375D01*
X44250Y16000D02*Y14300D01*
X44675Y13875D01*
X45695D01*
X46120Y14300D02*X45695Y13875D01*
X46120Y15575D02*Y14300D01*
X44250Y15575D02*X47650D01*
Y16000D02*Y14300D01*
X47225Y13875D01*
X46545D02*X47225D01*
X46120Y14300D02*X46545Y13875D01*
X4000Y16000D02*Y14000D01*
X5650Y37800D02*X5225Y37375D01*
X5650Y39075D02*Y37800D01*
X5225Y39500D02*X5650Y39075D01*
X4375Y39500D02*X5225D01*
X4375D02*X3950Y39075D01*
Y37800D01*
X3525Y37375D01*
X2675D02*X3525D01*
X2250Y37800D02*X2675Y37375D01*
X2250Y39075D02*Y37800D01*
X2675Y39500D02*X2250Y39075D01*
Y35930D02*X5650D01*
Y34825D02*X5055Y34230D01*
X2845D02*X5055D01*
X2250Y34825D02*X2845Y34230D01*
X2250Y36355D02*Y34825D01*
X5650Y36355D02*Y34825D01*
X2250Y33210D02*X4800D01*
X5650Y32615D01*
Y31680D01*
X4800Y31085D01*
X2250D02*X4800D01*
X3950Y33210D02*Y31085D01*
X5650Y26300D02*X5225Y25875D01*
X5650Y27575D02*Y26300D01*
X5225Y28000D02*X5650Y27575D01*
X4375Y28000D02*X5225D01*
X4375D02*X3950Y27575D01*
Y26300D01*
X3525Y25875D01*
X2675D02*X3525D01*
X2250Y26300D02*X2675Y25875D01*
X2250Y27575D02*Y26300D01*
X2675Y28000D02*X2250Y27575D01*
Y24260D02*Y23155D01*
X2845Y24855D02*X2250Y24260D01*
X2845Y24855D02*X5055D01*
X5650Y24260D01*
Y23155D01*
X2250Y22135D02*X5650D01*
X2250D02*Y20435D01*
G54D45*X27245Y8393D02*Y7607D01*
X32755Y8393D02*Y7607D01*
X18245Y8393D02*Y7607D01*
X23755Y8393D02*Y7607D01*
X15157Y35000D02*Y17157D01*
X19500Y36843D02*X34843D01*
Y17157D01*
X15157D02*X34843D01*
G54D46*X35307Y8900D02*X36807D01*
X37182Y8525D01*
Y7775D01*
X36807Y7400D02*X37182Y7775D01*
X35682Y7400D02*X36807D01*
X35682Y8900D02*Y5900D01*
X36282Y7400D02*X37182Y5900D01*
X38082Y8300D02*X38682Y8900D01*
Y5900D01*
X38082D02*X39207D01*
X12461D02*X13436D01*
X11936Y6425D02*X12461Y5900D01*
X11936Y8375D02*Y6425D01*
Y8375D02*X12461Y8900D01*
X13436D01*
X14336Y8300D02*X14936Y8900D01*
Y5900D01*
X14336D02*X15461D01*
M02*
