G04 start of page 3 for group 1 idx 1 *
G04 Title: (unknown), solder *
G04 Creator: pcb 20110918 *
G04 CreationDate: Thu 27 Mar 2014 04:48:04 PM GMT UTC *
G04 For: railfan *
G04 Format: Gerber/RS-274X *
G04 PCB-Dimensions: 50000 50000 *
G04 PCB-Coordinate-Origin: lower left *
%MOIN*%
%FSLAX25Y25*%
%LNBOTTOM*%
%ADD30C,0.0390*%
%ADD29C,0.0380*%
%ADD28C,0.0200*%
%ADD27C,0.0360*%
%ADD26C,0.0310*%
%ADD25C,0.0600*%
%ADD24C,0.0080*%
%ADD23C,0.0060*%
%ADD22C,0.0001*%
G54D22*G36*
X9993Y49000D02*X15500D01*
Y48779D01*
X15157Y48637D01*
X14761Y48394D01*
X14408Y48092D01*
X14106Y47739D01*
X13863Y47343D01*
X13686Y46914D01*
X13577Y46463D01*
X13541Y46000D01*
X13577Y45537D01*
X13686Y45086D01*
X13863Y44657D01*
X14106Y44261D01*
X14408Y43908D01*
X14416Y43900D01*
X14000D01*
X13780Y43887D01*
X13566Y43836D01*
X13362Y43751D01*
X13175Y43636D01*
X13007Y43493D01*
X12864Y43325D01*
X12769Y43171D01*
X12638Y43251D01*
X12434Y43336D01*
X12220Y43387D01*
X12198Y43389D01*
X12110Y43533D01*
X11844Y43844D01*
X11533Y44110D01*
X11184Y44324D01*
X10806Y44480D01*
X10408Y44576D01*
X10000Y44608D01*
X9993Y44607D01*
Y49000D01*
G37*
G36*
X15500Y1000D02*X9993D01*
Y10495D01*
X10000Y10495D01*
X10433Y10516D01*
X10863Y10578D01*
X11284Y10682D01*
X11694Y10825D01*
X11800Y10878D01*
X11896Y10947D01*
X11981Y11030D01*
X12051Y11125D01*
X12106Y11231D01*
X12143Y11343D01*
X12163Y11460D01*
X12164Y11579D01*
X12146Y11696D01*
X12110Y11809D01*
X12057Y11915D01*
X11988Y12012D01*
X11905Y12096D01*
X11809Y12167D01*
X11704Y12221D01*
X11592Y12259D01*
X11475Y12278D01*
X11356Y12279D01*
X11239Y12261D01*
X11126Y12223D01*
X10855Y12124D01*
X10575Y12056D01*
X10289Y12014D01*
X10000Y12000D01*
X9993Y12000D01*
Y18000D01*
X10000Y18000D01*
X10289Y17986D01*
X10575Y17944D01*
X10855Y17876D01*
X11128Y17780D01*
X11239Y17742D01*
X11356Y17725D01*
X11474Y17725D01*
X11591Y17745D01*
X11703Y17782D01*
X11807Y17836D01*
X11902Y17906D01*
X11985Y17991D01*
X12054Y18087D01*
X12107Y18192D01*
X12143Y18305D01*
X12160Y18421D01*
X12159Y18539D01*
X12140Y18656D01*
X12103Y18768D01*
X12048Y18873D01*
X11978Y18968D01*
X11894Y19051D01*
X11798Y19119D01*
X11692Y19170D01*
X11284Y19318D01*
X10863Y19422D01*
X10433Y19484D01*
X10000Y19505D01*
X9993Y19505D01*
Y20487D01*
X10000Y20486D01*
X10706Y20542D01*
X11395Y20707D01*
X12049Y20978D01*
X12653Y21348D01*
X13192Y21808D01*
X13652Y22347D01*
X14022Y22951D01*
X14293Y23605D01*
X14458Y24294D01*
X14500Y25000D01*
X14458Y25706D01*
X14293Y26395D01*
X14022Y27049D01*
X13652Y27653D01*
X13192Y28192D01*
X12653Y28652D01*
X12049Y29022D01*
X11395Y29293D01*
X10706Y29458D01*
X10000Y29514D01*
X9993Y29513D01*
Y30507D01*
X13235Y30514D01*
X13465Y30569D01*
X13683Y30659D01*
X13884Y30783D01*
X14064Y30936D01*
X14217Y31116D01*
X14341Y31317D01*
X14431Y31535D01*
X14486Y31765D01*
X14500Y32000D01*
X14491Y35836D01*
X14761Y35606D01*
X15157Y35363D01*
X15500Y35221D01*
Y18760D01*
X15132Y18671D01*
X14725Y18503D01*
X14349Y18272D01*
X14014Y17986D01*
X13728Y17651D01*
X13497Y17275D01*
X13451Y17163D01*
X13421Y17164D01*
X13304Y17146D01*
X13191Y17110D01*
X13085Y17057D01*
X12988Y16988D01*
X12904Y16905D01*
X12833Y16809D01*
X12779Y16704D01*
X12741Y16592D01*
X12722Y16475D01*
X12721Y16356D01*
X12739Y16239D01*
X12777Y16126D01*
X12876Y15855D01*
X12944Y15575D01*
X12986Y15289D01*
X13000Y15000D01*
X12986Y14711D01*
X12944Y14425D01*
X12876Y14145D01*
X12780Y13872D01*
X12742Y13761D01*
X12725Y13644D01*
X12725Y13526D01*
X12745Y13409D01*
X12782Y13297D01*
X12836Y13193D01*
X12906Y13098D01*
X12991Y13015D01*
X13087Y12946D01*
X13192Y12893D01*
X13305Y12857D01*
X13421Y12840D01*
X13539Y12841D01*
X13656Y12860D01*
X13768Y12897D01*
X13873Y12952D01*
X13968Y13022D01*
X14051Y13106D01*
X14119Y13202D01*
X14170Y13308D01*
X14318Y13716D01*
X14326Y13747D01*
X14349Y13728D01*
X14725Y13497D01*
X15132Y13329D01*
X15500Y13240D01*
Y1000D01*
G37*
G36*
X6387Y30630D02*X6535Y30569D01*
X6765Y30514D01*
X7000Y30500D01*
X9993Y30507D01*
Y29513D01*
X9294Y29458D01*
X8605Y29293D01*
X7951Y29022D01*
X7347Y28652D01*
X6808Y28192D01*
X6387Y27698D01*
Y30630D01*
G37*
G36*
Y49000D02*X9993D01*
Y44607D01*
X9592Y44576D01*
X9194Y44480D01*
X8816Y44324D01*
X8467Y44110D01*
X8156Y43844D01*
X7890Y43533D01*
X7676Y43184D01*
X7520Y42806D01*
X7424Y42408D01*
X7392Y42000D01*
X7424Y41592D01*
X7520Y41194D01*
X7676Y40816D01*
X7890Y40467D01*
X8156Y40156D01*
X8467Y39890D01*
X8816Y39676D01*
X9194Y39520D01*
X9310Y39492D01*
X6765Y39486D01*
X6535Y39431D01*
X6387Y39370D01*
Y49000D01*
G37*
G36*
X9993Y1000D02*X6387D01*
Y12849D01*
X6460Y12837D01*
X6579Y12836D01*
X6696Y12854D01*
X6809Y12890D01*
X6915Y12943D01*
X7012Y13012D01*
X7096Y13095D01*
X7167Y13191D01*
X7221Y13296D01*
X7259Y13408D01*
X7278Y13525D01*
X7279Y13644D01*
X7261Y13761D01*
X7223Y13874D01*
X7124Y14145D01*
X7056Y14425D01*
X7014Y14711D01*
X7000Y15000D01*
X7014Y15289D01*
X7056Y15575D01*
X7124Y15855D01*
X7220Y16128D01*
X7258Y16239D01*
X7275Y16356D01*
X7275Y16474D01*
X7255Y16591D01*
X7218Y16703D01*
X7164Y16807D01*
X7094Y16902D01*
X7009Y16985D01*
X6913Y17054D01*
X6808Y17107D01*
X6695Y17143D01*
X6579Y17160D01*
X6461Y17159D01*
X6387Y17147D01*
Y22302D01*
X6808Y21808D01*
X7347Y21348D01*
X7951Y20978D01*
X8605Y20707D01*
X9294Y20542D01*
X9993Y20487D01*
Y19505D01*
X9567Y19484D01*
X9137Y19422D01*
X8716Y19318D01*
X8306Y19175D01*
X8200Y19122D01*
X8104Y19053D01*
X8019Y18970D01*
X7949Y18875D01*
X7894Y18769D01*
X7857Y18657D01*
X7837Y18540D01*
X7836Y18421D01*
X7854Y18304D01*
X7890Y18191D01*
X7943Y18085D01*
X8012Y17988D01*
X8095Y17904D01*
X8191Y17833D01*
X8296Y17779D01*
X8408Y17741D01*
X8525Y17722D01*
X8644Y17721D01*
X8761Y17739D01*
X8874Y17777D01*
X9145Y17876D01*
X9425Y17944D01*
X9711Y17986D01*
X9993Y18000D01*
Y12000D01*
X9711Y12014D01*
X9425Y12056D01*
X9145Y12124D01*
X8872Y12220D01*
X8761Y12258D01*
X8644Y12275D01*
X8526Y12275D01*
X8409Y12255D01*
X8297Y12218D01*
X8193Y12164D01*
X8098Y12094D01*
X8015Y12009D01*
X7946Y11913D01*
X7893Y11808D01*
X7857Y11695D01*
X7840Y11579D01*
X7841Y11461D01*
X7860Y11344D01*
X7897Y11232D01*
X7952Y11127D01*
X8022Y11032D01*
X8106Y10949D01*
X8202Y10881D01*
X8308Y10830D01*
X8716Y10682D01*
X9137Y10578D01*
X9567Y10516D01*
X9993Y10495D01*
Y1000D01*
G37*
G36*
X6387D02*X1000D01*
Y49000D01*
X6387D01*
Y39370D01*
X6317Y39341D01*
X6116Y39217D01*
X5936Y39064D01*
X5783Y38884D01*
X5659Y38683D01*
X5569Y38465D01*
X5514Y38235D01*
X5500Y38000D01*
X5514Y31765D01*
X5569Y31535D01*
X5659Y31317D01*
X5783Y31116D01*
X5936Y30936D01*
X6116Y30783D01*
X6317Y30659D01*
X6387Y30630D01*
Y27698D01*
X6348Y27653D01*
X5978Y27049D01*
X5707Y26395D01*
X5542Y25706D01*
X5486Y25000D01*
X5542Y24294D01*
X5707Y23605D01*
X5978Y22951D01*
X6348Y22347D01*
X6387Y22302D01*
Y17147D01*
X6344Y17140D01*
X6232Y17103D01*
X6127Y17048D01*
X6032Y16978D01*
X5949Y16894D01*
X5881Y16798D01*
X5830Y16692D01*
X5682Y16284D01*
X5578Y15863D01*
X5516Y15433D01*
X5495Y15000D01*
X5516Y14567D01*
X5578Y14137D01*
X5682Y13716D01*
X5825Y13306D01*
X5878Y13200D01*
X5947Y13104D01*
X6030Y13019D01*
X6125Y12949D01*
X6231Y12894D01*
X6343Y12857D01*
X6387Y12849D01*
Y1000D01*
G37*
G54D23*X29000Y46000D02*X30000Y47000D01*
G54D24*X21500Y44500D02*X19500Y42500D01*
X14000D01*
X11000Y45500D01*
X21500Y39500D02*X20000Y41000D01*
X13000D01*
X12000Y42000D01*
X10000D01*
X40000Y43500D02*Y35000D01*
X34000Y36000D02*X30000D01*
X26500Y39500D01*
G54D23*X29000Y42000D02*X31500Y39500D01*
X25000Y30000D02*X43000D01*
G54D24*X31500Y44500D02*X34000D01*
X35000Y45500D01*
X38000D01*
X40000Y43500D01*
G54D23*X29000Y46000D02*Y42000D01*
X24000D02*X26500Y44500D01*
X24000Y42000D02*Y31000D01*
X25000Y30000D01*
X30000Y47000D02*X43500D01*
X45500Y45000D01*
Y32500D01*
X43000Y30000D02*X45500Y27500D01*
G54D24*X40000Y25000D02*X25000D01*
X16000Y16000D01*
G54D25*X40000Y35000D03*
Y25000D03*
Y15000D03*
G54D22*G36*
X7000Y38000D02*Y32000D01*
X13000D01*
Y38000D01*
X7000D01*
G37*
G54D25*X10000Y25000D03*
Y15000D03*
G54D26*X31500Y39500D03*
Y44500D03*
X26500Y39500D03*
Y44500D03*
X21500Y39500D03*
Y44500D03*
G54D27*X10000Y42000D03*
X3500Y46500D03*
X7500D03*
X45500Y27500D03*
Y32500D03*
X34000Y36000D03*
X16000Y16000D03*
G54D28*G54D29*G54D30*G54D29*G54D30*M02*
