G04 start of page 10 for group -4078 idx -4078 *
G04 Title: (unknown), bottomsilk *
G04 Creator: pcb 20110918 *
G04 CreationDate: Thu 27 Mar 2014 04:48:04 PM GMT UTC *
G04 For: railfan *
G04 Format: Gerber/RS-274X *
G04 PCB-Dimensions: 50000 50000 *
G04 PCB-Coordinate-Origin: lower left *
%MOIN*%
%FSLAX25Y25*%
%LNBOTTOMSILK*%
%ADD48C,0.0080*%
%ADD47C,0.0100*%
G54D47*X49500Y49500D02*X500D01*
Y500D01*
X15000Y40000D02*X5000D01*
X45000D02*Y10000D01*
X35000D01*
X500Y500D02*X49500D01*
Y49500D01*
X5000Y10000D02*X15000D01*
Y40000D01*
X5000D02*Y10000D01*
X35000D02*Y40000D01*
X45000D01*
G54D48*X12000Y3500D02*X13000D01*
X12500D02*Y7500D01*
X12000D02*X13000D01*
X14200Y4000D02*X14700Y3500D01*
X16200D01*
X16700Y4000D01*
Y5000D01*
X14200Y7500D02*X16700Y5000D01*
X14200Y7500D02*X16700D01*
X18600D02*X19900D01*
X17900Y6800D02*X18600Y7500D01*
X17900Y4200D02*Y6800D01*
Y4200D02*X18600Y3500D01*
X19900D01*
X21100Y5500D02*X23100D01*
X25000Y7500D02*X26300D01*
X24300Y6800D02*X25000Y7500D01*
X24300Y4200D02*Y6800D01*
Y4200D02*X25000Y3500D01*
X26300D01*
X27500Y4000D02*Y7000D01*
Y4000D02*X28000Y3500D01*
X29000D01*
X29500Y4000D01*
Y7000D01*
X29000Y7500D02*X29500Y7000D01*
X28000Y7500D02*X29000D01*
X27500Y7000D02*X28000Y7500D01*
X30700Y3500D02*Y7000D01*
X31200Y7500D01*
X32200D01*
X32700Y7000D01*
Y3500D02*Y7000D01*
X33900Y3500D02*Y7500D01*
Y3500D02*X36400Y7500D01*
Y3500D02*Y7500D01*
X37600Y3500D02*X39600D01*
X38600D02*Y7500D01*
X19500Y12000D02*X20500Y14000D01*
X21500Y12000D02*X20500Y14000D01*
X22700Y10800D02*X23500Y10000D01*
Y14000D01*
X22700D02*X24200D01*
X25400D02*X25900D01*
X27100Y13500D02*X27600Y14000D01*
X27100Y10500D02*Y13500D01*
Y10500D02*X27600Y10000D01*
X28600D01*
X29100Y10500D01*
Y13500D01*
X28600Y14000D02*X29100Y13500D01*
X27600Y14000D02*X28600D01*
X27100Y13000D02*X29100Y11000D01*
X19000Y16500D02*X20000D01*
X19500D02*Y20500D01*
X19000D02*X20000D01*
X21200Y19000D02*Y20000D01*
Y19000D02*X21700Y18500D01*
X22700D01*
X23200Y19000D01*
Y20000D01*
X22700Y20500D02*X23200Y20000D01*
X21700Y20500D02*X22700D01*
X21200Y20000D02*X21700Y20500D01*
X24400Y18500D02*Y20000D01*
X24900Y20500D01*
X25400D01*
X25900Y20000D01*
Y18500D02*Y20000D01*
X26400Y20500D01*
X26900D01*
X27400Y20000D01*
Y18500D02*Y20000D01*
X30100Y18500D02*X30600Y19000D01*
X29100Y18500D02*X30100D01*
X28600Y19000D02*X29100Y18500D01*
X28600Y19000D02*Y20000D01*
X29100Y20500D01*
X30600Y18500D02*Y20000D01*
X31100Y20500D01*
X29100D02*X30100D01*
X30600Y20000D01*
X18300Y23000D02*X18800Y23500D01*
X16800Y23000D02*X18300D01*
X16300Y23500D02*X16800Y23000D01*
X16300Y23500D02*Y24500D01*
X16800Y25000D01*
X18300D01*
X18800Y25500D01*
Y26500D01*
X18300Y27000D02*X18800Y26500D01*
X16800Y27000D02*X18300D01*
X16300Y26500D02*X16800Y27000D01*
X20500Y25000D02*X22000D01*
X20000Y25500D02*X20500Y25000D01*
X20000Y25500D02*Y26500D01*
X20500Y27000D01*
X22000D01*
X24700Y25000D02*X25200Y25500D01*
X23700Y25000D02*X24700D01*
X23200Y25500D02*X23700Y25000D01*
X23200Y25500D02*Y26500D01*
X23700Y27000D01*
X25200Y25000D02*Y26500D01*
X25700Y27000D01*
X23700D02*X24700D01*
X25200Y26500D01*
X26900Y23000D02*Y26500D01*
X27400Y27000D01*
X28900D02*X30400D01*
X28400Y26500D02*X28900Y27000D01*
X28400Y25500D02*Y26500D01*
Y25500D02*X28900Y25000D01*
X29900D01*
X30400Y25500D01*
X28400Y26000D02*X30400D01*
Y25500D02*Y26000D01*
X33600Y23000D02*Y27000D01*
X33100D02*X33600Y26500D01*
X32100Y27000D02*X33100D01*
X31600Y26500D02*X32100Y27000D01*
X31600Y25500D02*Y26500D01*
Y25500D02*X32100Y25000D01*
X33100D01*
X33600Y25500D01*
X20500Y31300D02*X22000D01*
X20500Y33500D02*X22500D01*
X20500Y29500D02*Y33500D01*
Y29500D02*X22500D01*
X24200Y32000D02*Y33500D01*
Y32000D02*X24700Y31500D01*
X25200D01*
X25700Y32000D01*
Y33500D01*
X23700Y31500D02*X24200Y32000D01*
X28400Y31500D02*X28900Y32000D01*
X27400Y31500D02*X28400D01*
X26900Y32000D02*X27400Y31500D01*
X26900Y32000D02*Y33000D01*
X27400Y33500D01*
X28400D01*
X28900Y33000D01*
X26900Y34500D02*X27400Y35000D01*
X28400D01*
X28900Y34500D01*
Y31500D02*Y34500D01*
M02*
