G04 start of page 7 for group -4063 idx -4063 *
G04 Title: (unknown), componentmask *
G04 Creator: pcb 20110918 *
G04 CreationDate: Thu 27 Mar 2014 04:48:04 PM GMT UTC *
G04 For: railfan *
G04 Format: Gerber/RS-274X *
G04 PCB-Dimensions: 50000 50000 *
G04 PCB-Coordinate-Origin: lower left *
%MOIN*%
%FSLAX25Y25*%
%LNTOPMASK*%
%ADD39R,0.0572X0.0572*%
%ADD38R,0.0147X0.0147*%
%ADD37C,0.0001*%
%ADD36C,0.0490*%
%ADD35C,0.0660*%
G54D35*X40000Y35000D03*
Y25000D03*
Y15000D03*
G54D36*X36500Y42000D03*
G54D37*G36*
X6700Y38300D02*Y31700D01*
X13300D01*
Y38300D01*
X6700D01*
G37*
G54D35*X10000Y25000D03*
Y15000D03*
G54D36*X16500Y46000D03*
Y38000D03*
G54D38*X25000Y20268D02*Y18575D01*
X26772Y20268D02*Y18575D01*
X28543Y20268D02*Y18575D01*
X30315Y20071D02*Y18575D01*
X31929Y21685D02*X33425D01*
X31732Y23457D02*X33425D01*
G54D39*X20607Y11543D02*X21393D01*
G54D38*X19685Y20071D02*Y18575D01*
X21457Y20268D02*Y18575D01*
X23228Y20268D02*Y18575D01*
G54D39*X29607Y4457D02*X30393D01*
X29607Y11543D02*X30393D01*
X20607Y4457D02*X21393D01*
G54D38*X31732Y25228D02*X33425D01*
X31732Y27000D02*X33425D01*
X31732Y28772D02*X33425D01*
X31732Y30543D02*X33425D01*
G54D37*G36*
X19976Y32024D02*Y21976D01*
X30024D01*
Y32024D01*
X19976D01*
G37*
G36*
Y21976D01*
X30024D01*
Y32024D01*
X19976D01*
G37*
G54D38*X19685Y35425D02*Y33929D01*
X16575Y32315D02*X18071D01*
X16575Y30543D02*X18268D01*
X16575Y28772D02*X18268D01*
X16575Y27000D02*X18268D01*
X16575Y25228D02*X18268D01*
X16575Y23457D02*X18268D01*
X16575Y21685D02*X18071D01*
X31929Y32315D02*X33425D01*
X30315Y35425D02*Y33929D01*
X28543Y35425D02*Y33732D01*
X26772Y35425D02*Y33732D01*
X25000Y35425D02*Y33732D01*
X23228Y35425D02*Y33732D01*
X21457Y35425D02*Y33732D01*
M02*
