G04 start of page 2 for group 0 idx 0 *
G04 Title: (unknown), component *
G04 Creator: pcb 20110918 *
G04 CreationDate: Thu 27 Mar 2014 04:48:04 PM GMT UTC *
G04 For: railfan *
G04 Format: Gerber/RS-274X *
G04 PCB-Dimensions: 50000 50000 *
G04 PCB-Coordinate-Origin: lower left *
%MOIN*%
%FSLAX25Y25*%
%LNTOP*%
%ADD21C,0.0390*%
%ADD20C,0.0380*%
%ADD19C,0.0200*%
%ADD18C,0.0360*%
%ADD17R,0.0512X0.0512*%
%ADD16R,0.0087X0.0087*%
%ADD15C,0.0600*%
%ADD14C,0.0100*%
%ADD13C,0.0250*%
%ADD12C,0.0080*%
%ADD11C,0.0001*%
G54D11*G36*
X22858Y17000D02*X34500D01*
Y14000D01*
X24745D01*
X24745Y14228D01*
X24715Y14350D01*
X24667Y14466D01*
X24601Y14574D01*
X24519Y14669D01*
X24424Y14751D01*
X24316Y14817D01*
X24200Y14865D01*
X24078Y14895D01*
X23952Y14902D01*
X22500Y14900D01*
Y16023D01*
X22593Y16131D01*
X22593Y16132D01*
X22708Y16319D01*
X22793Y16523D01*
X22844Y16737D01*
X22861Y16957D01*
X22858Y17000D01*
G37*
G36*
X27000Y9000D02*Y17000D01*
X35879D01*
X36088Y16791D01*
X35898Y16333D01*
X35740Y15675D01*
X35687Y15000D01*
X35740Y14325D01*
X35898Y13667D01*
X36157Y13042D01*
X36510Y12465D01*
X36950Y11950D01*
X37465Y11510D01*
X38042Y11157D01*
X38667Y10898D01*
X39325Y10740D01*
X40000Y10687D01*
X40675Y10740D01*
X41333Y10898D01*
X41958Y11157D01*
X42535Y11510D01*
X43050Y11950D01*
X43490Y12465D01*
X43843Y13042D01*
X44102Y13667D01*
X44260Y14325D01*
X44300Y15000D01*
X44260Y15675D01*
X44102Y16333D01*
X43843Y16958D01*
X43818Y17000D01*
X49000D01*
Y9000D01*
X27000D01*
G37*
G36*
X37000Y38000D02*X43000D01*
Y33224D01*
X42924Y32908D01*
X42892Y32500D01*
X42924Y32092D01*
X42960Y31940D01*
X42420Y31400D01*
X38580D01*
X37000Y32980D01*
Y38000D01*
G37*
G36*
X49000Y39000D02*Y9000D01*
X40000D01*
Y10687D01*
X40675Y10740D01*
X41333Y10898D01*
X41958Y11157D01*
X42535Y11510D01*
X43050Y11950D01*
X43490Y12465D01*
X43843Y13042D01*
X44102Y13667D01*
X44260Y14325D01*
X44300Y15000D01*
X44260Y15675D01*
X44102Y16333D01*
X43843Y16958D01*
X43490Y17535D01*
X43050Y18050D01*
X42535Y18490D01*
X41958Y18843D01*
X41338Y19100D01*
X41945D01*
X42000Y19096D01*
X42220Y19113D01*
X42434Y19164D01*
X42638Y19249D01*
X42825Y19364D01*
X42993Y19507D01*
X43029Y19549D01*
X46451Y22971D01*
X46493Y23007D01*
X46636Y23174D01*
X46636Y23175D01*
X46751Y23362D01*
X46836Y23566D01*
X46887Y23780D01*
X46904Y24000D01*
X46900Y24055D01*
Y25309D01*
X47033Y25390D01*
X47344Y25656D01*
X47610Y25967D01*
X47824Y26316D01*
X47980Y26694D01*
X48076Y27092D01*
X48100Y27500D01*
X48076Y27908D01*
X47980Y28306D01*
X47824Y28684D01*
X47610Y29033D01*
X47344Y29344D01*
X47033Y29610D01*
X46684Y29824D01*
X46306Y29980D01*
X46224Y30000D01*
X46306Y30020D01*
X46684Y30176D01*
X47033Y30390D01*
X47344Y30656D01*
X47610Y30967D01*
X47824Y31316D01*
X47980Y31694D01*
X48076Y32092D01*
X48100Y32500D01*
X48076Y32908D01*
X47980Y33306D01*
X47824Y33684D01*
X47610Y34033D01*
X47344Y34344D01*
X47033Y34610D01*
X46684Y34824D01*
X46306Y34980D01*
X45908Y35076D01*
X45500Y35108D01*
X45092Y35076D01*
X44694Y34980D01*
X44316Y34824D01*
X43967Y34610D01*
X43656Y34344D01*
X43390Y34033D01*
X43176Y33684D01*
X43020Y33306D01*
X42924Y32908D01*
X42892Y32500D01*
X42924Y32092D01*
X42960Y31940D01*
X42420Y31400D01*
X40000D01*
Y39000D01*
X49000D01*
G37*
G36*
Y15000D02*Y1000D01*
X35000D01*
Y15000D01*
X35687D01*
X35740Y14325D01*
X35898Y13667D01*
X36157Y13042D01*
X36510Y12465D01*
X36950Y11950D01*
X37465Y11510D01*
X38042Y11157D01*
X38667Y10898D01*
X39325Y10740D01*
X40000Y10687D01*
X40675Y10740D01*
X41333Y10898D01*
X41958Y11157D01*
X42535Y11510D01*
X43050Y11950D01*
X43490Y12465D01*
X43843Y13042D01*
X44102Y13667D01*
X44260Y14325D01*
X44300Y15000D01*
X49000D01*
G37*
G36*
Y40000D02*Y35000D01*
X46224D01*
X45908Y35076D01*
X45500Y35108D01*
X45092Y35076D01*
X44776Y35000D01*
X37000D01*
Y39086D01*
X37414Y39186D01*
X37843Y39363D01*
X38239Y39606D01*
X38592Y39908D01*
X38671Y40000D01*
X49000D01*
G37*
G36*
X16495Y49000D02*X25500D01*
Y39000D01*
X19279D01*
X19137Y39343D01*
X18894Y39739D01*
X18592Y40092D01*
X18239Y40394D01*
X17843Y40637D01*
X17414Y40814D01*
X16963Y40923D01*
X16500Y40959D01*
X16495Y40959D01*
Y43041D01*
X16500Y43041D01*
X16963Y43077D01*
X17414Y43186D01*
X17843Y43363D01*
X18239Y43606D01*
X18592Y43908D01*
X18894Y44261D01*
X19137Y44657D01*
X19314Y45086D01*
X19423Y45537D01*
X19450Y46000D01*
X19423Y46463D01*
X19314Y46914D01*
X19137Y47343D01*
X18894Y47739D01*
X18592Y48092D01*
X18239Y48394D01*
X17843Y48637D01*
X17414Y48814D01*
X16963Y48923D01*
X16500Y48959D01*
X16495Y48959D01*
Y49000D01*
G37*
G36*
X1000D02*X16495D01*
Y48959D01*
X16037Y48923D01*
X15586Y48814D01*
X15157Y48637D01*
X14761Y48394D01*
X14408Y48092D01*
X14106Y47739D01*
X13863Y47343D01*
X13686Y46914D01*
X13577Y46463D01*
X13541Y46000D01*
X13577Y45537D01*
X13686Y45086D01*
X13863Y44657D01*
X14106Y44261D01*
X14408Y43908D01*
X14761Y43606D01*
X15157Y43363D01*
X15586Y43186D01*
X16037Y43077D01*
X16495Y43041D01*
Y40959D01*
X16037Y40923D01*
X15586Y40814D01*
X15157Y40637D01*
X14761Y40394D01*
X14408Y40092D01*
X14106Y39739D01*
X13863Y39343D01*
X13826Y39253D01*
X13683Y39341D01*
X13465Y39431D01*
X13235Y39486D01*
X13000Y39500D01*
X10703Y39495D01*
X10806Y39520D01*
X11184Y39676D01*
X11533Y39890D01*
X11844Y40156D01*
X12110Y40467D01*
X12324Y40816D01*
X12480Y41194D01*
X12576Y41592D01*
X12600Y42000D01*
X12576Y42408D01*
X12480Y42806D01*
X12324Y43184D01*
X12110Y43533D01*
X11844Y43844D01*
X11533Y44110D01*
X11184Y44324D01*
X10806Y44480D01*
X10408Y44576D01*
X10000Y44608D01*
X9592Y44576D01*
X9194Y44480D01*
X8816Y44324D01*
X8467Y44110D01*
X8156Y43844D01*
X7890Y43533D01*
X7809Y43400D01*
X7055D01*
X7000Y43404D01*
X6780Y43387D01*
X6566Y43336D01*
X6362Y43251D01*
X6175Y43136D01*
X6174Y43136D01*
X6007Y42993D01*
X5971Y42951D01*
X3549Y40529D01*
X3507Y40493D01*
X3364Y40325D01*
X3249Y40138D01*
X3164Y39934D01*
X3113Y39720D01*
X3096Y39500D01*
X3100Y39445D01*
Y39000D01*
X1000D01*
Y49000D01*
G37*
G54D12*X10000Y42000D02*X7000D01*
X4500Y39500D01*
Y23500D01*
X8000Y20000D01*
X4500Y7500D02*X7500Y4500D01*
X4500Y16500D02*Y7500D01*
X8000Y20000D02*X4500Y16500D01*
X20500Y16000D02*X16000D01*
X21457Y16957D02*X20500Y16000D01*
X21457Y19421D02*Y16957D01*
X23228Y19421D02*Y16000D01*
X7500Y4500D02*X30000D01*
G54D13*X10000Y15000D02*X13457Y11543D01*
X21000D01*
G54D12*X13000Y20000D02*X8000D01*
X14500Y21500D02*X13000Y20000D01*
X14500Y26000D02*Y21500D01*
X15500Y27000D02*X14500Y26000D01*
X17422Y27000D02*X15500D01*
X17422Y30543D02*X14457D01*
X10000Y35000D01*
X17422Y28772D02*X13772D01*
X10000Y25000D01*
X25000Y19421D02*Y41000D01*
X28543Y34578D02*Y37043D01*
X30500Y39000D01*
X32500Y34500D02*X30315D01*
X30500Y39000D02*X40000D01*
X34000Y36000D02*X32500Y34500D01*
X32677Y32315D02*X35685D01*
X38000Y30000D01*
X32579Y30543D02*X34457D01*
X35500Y29500D01*
X38000Y30000D02*X43000D01*
X45500Y32500D01*
X35500Y29500D02*Y23000D01*
X42000Y20500D02*X45500Y24000D01*
Y27500D01*
X35500Y23000D02*X38000Y20500D01*
X42000D01*
G54D14*X30315Y19323D02*X35677D01*
X40000Y15000D01*
G54D15*Y35000D03*
Y25000D03*
Y15000D03*
G54D11*G36*
X7000Y38000D02*Y32000D01*
X13000D01*
Y38000D01*
X7000D01*
G37*
G54D15*X10000Y25000D03*
Y15000D03*
G54D16*X25000Y20268D02*Y18575D01*
X26772Y20268D02*Y18575D01*
X28543Y20268D02*Y18575D01*
X30315Y20071D02*Y18575D01*
X31929Y21685D02*X33425D01*
X31732Y23457D02*X33425D01*
G54D17*X20607Y11543D02*X21393D01*
G54D16*X19685Y20071D02*Y18575D01*
X21457Y20268D02*Y18575D01*
X23228Y20268D02*Y18575D01*
G54D17*X29607Y4457D02*X30393D01*
X29607Y11543D02*X30393D01*
X20607Y4457D02*X21393D01*
G54D16*X31732Y25228D02*X33425D01*
X31732Y27000D02*X33425D01*
X31732Y28772D02*X33425D01*
X31732Y30543D02*X33425D01*
G54D11*G36*
X21063Y30937D02*Y23063D01*
X28937D01*
Y30937D01*
X21063D01*
G37*
G36*
X20276Y31724D02*Y22276D01*
X29724D01*
Y31724D01*
X20276D01*
G37*
G54D16*X19685Y35425D02*Y33929D01*
X16575Y32315D02*X18071D01*
X16575Y30543D02*X18268D01*
X16575Y28772D02*X18268D01*
X16575Y27000D02*X18268D01*
X16575Y25228D02*X18268D01*
X16575Y23457D02*X18268D01*
X16575Y21685D02*X18071D01*
X31929Y32315D02*X33425D01*
X30315Y35425D02*Y33929D01*
X28543Y35425D02*Y33732D01*
X26772Y35425D02*Y33732D01*
X25000Y35425D02*Y33732D01*
X23228Y35425D02*Y33732D01*
X21457Y35425D02*Y33732D01*
G54D18*X10000Y42000D03*
X3500Y46500D03*
X7500D03*
X45500Y27500D03*
Y32500D03*
X34000Y36000D03*
X16000Y16000D03*
G54D19*G54D20*G54D21*G54D20*G54D21*M02*
